<svg width="213" height="243" viewBox="0 0 213 243" fill="#5774FF" xmlns="http://www.w3.org/2000/svg">
<g opacity="0.4">
<path fill-rule="evenodd" clip-rule="evenodd" d="M178.958 299.632C176.946 299.423 175.035 299.224 173.235 299.044C164.229 298.144 154.84 298.908 145.299 299.683L144.704 299.732C134.932 300.525 124.991 301.298 114.975 300.346C95.0161 298.448 74.7419 289.7 55.3331 260.335C30.8335 223.267 10.0498 165.938 3.31979 115.252C-0.0454565 89.9068 0.120965 66.3518 5.00857 47.8667C9.87937 29.4451 19.4251 16.0742 34.9261 10.8568C56.6564 3.54256 73.1536 -0.410443 90.8982 2.0179C108.646 4.44676 127.743 13.2755 154.615 31.7745C165.154 39.0296 176.253 43.047 187.655 46.1174C192.662 47.4655 197.74 48.6343 202.856 49.8116C203.563 49.9744 204.272 50.1375 204.981 50.3011C210.821 51.6496 216.711 53.0443 222.638 54.7689C246.298 61.6536 270.56 73.7926 293.923 109.141C302.902 122.726 311.661 134.726 319.599 145.602C322.559 149.658 325.406 153.558 328.107 157.325C338.08 171.235 346.047 183.306 350.647 194.9C355.221 206.428 356.437 217.405 352.977 229.23C349.491 241.143 341.213 254.079 326.478 269.319C305.404 291.114 275.852 299.458 247.099 301.876C221.342 304.042 196.376 301.444 178.958 299.632ZM178.872 300.93C215.712 304.764 286.69 312.15 327.13 270.327C375.514 220.288 355.999 193.552 320.34 144.697C312.407 133.828 303.675 121.864 294.713 108.306C264.563 62.6892 232.872 55.3956 203.041 48.5302C186.274 44.6714 170.095 40.9478 155.108 30.6304C101.265 -6.43539 78.1696 -5.04655 34.6611 9.59794C-28.8916 30.9891 5.30091 186.668 54.5427 261.17C84.1465 305.96 115.883 303.38 145.33 300.986C154.897 300.208 164.222 299.45 173.154 300.343C174.951 300.522 176.861 300.721 178.872 300.93Z" fill="#5774FF"/>
<path fill-rule="evenodd" clip-rule="evenodd" d="M176.658 296.417C174.917 296.234 173.262 296.059 171.704 295.902C163.898 295.111 155.763 295.762 147.51 296.422L146.99 296.463C138.531 297.139 129.936 297.796 121.277 296.961C104.033 295.297 86.5143 287.717 69.7196 262.306C48.5024 230.205 30.4802 180.567 24.6211 136.7C21.6913 114.764 21.8206 94.3997 26.0272 78.4372C30.2169 62.5388 38.4371 51.023 51.7968 46.5411C70.5965 40.2343 84.8518 36.8382 100.186 38.9579C115.523 41.0783 132.04 48.7333 155.307 64.7787C164.451 71.0847 174.075 74.5806 183.952 77.2541C188.289 78.4281 192.689 79.4467 197.118 80.4722C197.729 80.6139 198.342 80.7557 198.955 80.8981C204.011 82.0725 209.107 83.2865 214.235 84.7858C234.699 90.7692 255.678 101.294 275.902 131.893C283.687 143.67 291.28 154.076 298.159 163.503C300.725 167.019 303.19 170.398 305.53 173.661C314.173 185.718 321.066 196.164 325.047 206.185C329.002 216.14 330.053 225.596 327.083 235.776C324.087 246.043 316.956 257.21 304.22 270.382C286.03 289.194 260.493 296.38 235.618 298.44C213.337 300.284 191.736 298.007 176.658 296.417ZM176.571 297.716C208.461 301.078 269.901 307.557 304.872 271.39C346.713 228.118 329.802 204.944 298.901 162.599C292.026 153.178 284.468 142.921 276.701 131.171C250.571 91.6358 223.127 85.1703 197.302 79.1906C182.786 75.8296 168.78 72.5864 155.8 63.635C109.169 31.4767 89.1802 32.6523 51.5327 45.282C-3.45886 63.7303 26.2527 198.572 68.9293 263.142C94.5861 301.96 122.054 299.763 147.54 297.725C155.819 297.063 163.89 296.417 171.622 297.2C173.177 297.358 174.83 297.532 176.571 297.716Z" fill="#5774FF"/>
<path fill-rule="evenodd" clip-rule="evenodd" d="M171.259 268.539C169.861 268.443 168.534 268.351 167.283 268.27C161.026 267.864 154.478 268.604 147.825 269.356L147.409 269.403C140.595 270.172 133.662 270.931 126.702 270.512C112.834 269.678 98.846 264.168 85.7593 244.541C69.2402 219.766 55.6021 181.053 51.6521 146.555C49.677 129.305 50.1347 113.196 53.8058 100.444C57.4642 87.7366 64.3042 78.3733 75.172 74.4464C90.4072 68.9413 101.95 65.8558 114.269 67.1042C126.591 68.3529 139.758 73.946 158.198 85.9701C165.43 90.6858 173.099 93.1749 180.993 95.0095C184.459 95.815 187.978 96.4962 191.523 97.1824C192.013 97.2773 192.504 97.3724 192.995 97.4678C197.042 98.2542 201.122 99.0711 205.223 100.113C221.596 104.271 238.311 112.007 254.064 135.633C260.119 144.712 266.043 152.714 271.411 159.965C273.414 162.669 275.339 165.27 277.165 167.783C283.907 177.061 289.278 185.129 292.313 192.949C295.33 200.725 296.017 208.202 293.436 216.367C290.836 224.592 284.886 233.629 274.405 244.391C259.417 259.781 238.721 266.171 218.668 268.492C200.704 270.571 183.36 269.374 171.259 268.539ZM171.181 269.429C196.774 271.195 246.083 274.598 274.845 245.065C309.257 209.73 296.058 191.903 271.941 159.329C266.575 152.082 260.669 144.105 254.627 135.043C234.298 104.555 212.339 100.304 191.67 96.302C180.053 94.0529 168.842 91.8826 158.558 85.1764C121.609 61.0841 105.51 62.5697 75.0058 73.5919C30.4487 89.692 51.995 195.336 85.197 245.13C105.158 275.066 127.291 272.566 147.827 270.246C154.499 269.492 161.002 268.757 167.208 269.16C168.457 269.241 169.783 269.332 171.181 269.429Z" fill="#5774FF"/>
<path fill-rule="evenodd" clip-rule="evenodd" d="M169.704 266.395C168.495 266.31 167.345 266.229 166.263 266.157C160.84 265.798 155.166 266.432 149.411 267.075L149.048 267.115C143.15 267.774 137.156 268.422 131.14 268.052C119.158 267.315 107.071 262.538 95.7469 245.555C81.4409 224.1 69.6139 190.581 66.1713 160.724C64.4498 145.795 64.8354 131.869 67.9957 120.858C71.1434 109.891 77.0336 101.827 86.3999 98.4523C99.5801 93.704 109.554 91.0512 120.199 92.1446C130.847 93.2383 142.235 98.0887 158.201 108.519C164.476 112.618 171.125 114.785 177.963 116.384C180.966 117.086 184.014 117.68 187.083 118.278C187.507 118.361 187.931 118.444 188.356 118.527C191.859 119.212 195.389 119.924 198.938 120.83C213.098 124.446 227.551 131.155 241.188 151.606C246.437 159.478 251.572 166.416 256.225 172.702C257.96 175.046 259.628 177.299 261.209 179.475C267.052 187.518 271.699 194.5 274.325 201.259C276.934 207.974 277.529 214.414 275.313 221.443C273.079 228.532 267.951 236.333 258.893 245.634C245.956 258.918 228.073 264.424 210.725 266.409C195.185 268.188 180.179 267.132 169.704 266.395ZM169.625 267.285C191.779 268.844 234.46 271.847 259.333 246.308C289.091 215.752 277.654 200.3 256.755 172.066C252.105 165.785 246.991 158.948 241.754 151.094C224.136 124.67 205.123 120.887 187.23 117.398C177.172 115.437 167.468 113.544 158.561 107.726C126.562 86.8212 112.629 88.0888 86.2343 97.5975C47.6804 111.487 66.4093 202.989 95.1846 246.145C112.484 272.089 131.639 269.95 149.413 267.965C155.187 267.32 160.815 266.691 166.187 267.047C167.268 267.119 168.416 267.199 169.625 267.285Z" fill="#5774FF"/>
</g>
</svg>
