<svg width="191" height="126" viewBox="0 0 191 126" fill="none" xmlns="http://www.w3.org/2000/svg">
<g clip-path="url(#clip0_11_3194)">
<path d="M9.79617 115.995C10.57 116.272 11.4032 116.342 12.2123 116.196C13.0215 116.05 13.7781 115.694 14.4065 115.164C16.0213 113.778 16.5275 111.495 16.9395 109.382C17.3456 107.297 17.7518 105.213 18.1579 103.129L15.607 104.925C13.7725 106.216 11.8967 107.549 10.6265 109.42C9.3563 111.291 8.80186 113.844 9.82242 115.868" fill="#20DD3E"/>
<path d="M10.0142 123.564C9.75605 121.641 9.49057 119.694 9.67167 117.75C9.83251 116.024 10.3475 114.338 11.3961 112.956C11.95 112.226 12.6273 111.599 13.3973 111.102C13.5974 110.973 13.7816 111.297 13.5823 111.426C12.2475 112.292 11.2209 113.559 10.6492 115.044C10.0106 116.705 9.90804 118.515 10.0181 120.279C10.0846 121.346 10.2257 122.406 10.3678 123.465C10.3793 123.512 10.3724 123.562 10.3487 123.605C10.325 123.648 10.2861 123.68 10.2398 123.695C10.2164 123.701 10.1919 123.703 10.1679 123.7C10.1439 123.697 10.1208 123.689 10.0998 123.677C10.0789 123.664 10.0605 123.648 10.0458 123.629C10.0311 123.61 10.0204 123.588 10.0142 123.564Z" fill="#F2F2F2"/>
<path d="M12.5012 120.162C12.8272 120.674 13.281 121.093 13.818 121.376C14.355 121.66 14.9566 121.798 15.5634 121.778C17.1136 121.703 18.4059 120.596 19.5692 119.546L23.0102 116.44L20.7328 116.329C19.0951 116.248 17.4152 116.174 15.8553 116.69C14.2954 117.206 12.8568 118.449 12.5716 120.1" fill="#20DD3E"/>
<path d="M9.28464 124.67C10.5273 122.422 11.9688 119.923 14.5444 119.124C15.2596 118.903 16.0111 118.824 16.7567 118.891C16.9916 118.911 16.9329 119.282 16.6985 119.261C15.4461 119.156 14.1966 119.494 13.1679 120.216C12.1725 120.909 11.3974 121.872 10.7414 122.893C10.3395 123.519 9.97958 124.171 9.61957 124.822C9.50452 125.031 9.16824 124.88 9.28464 124.67Z" fill="#F2F2F2"/>
<path d="M75.3042 57.472C75.5927 58.0687 75.6366 58.7546 75.4266 59.3832C75.2165 60.0118 74.769 60.5334 74.1797 60.8366C74.059 60.8962 73.9335 60.9456 73.8046 60.9844L73.384 69.8559L69.7402 67.1314L70.6983 59.1246C70.5765 58.5778 70.6395 58.006 70.8775 57.4989C71.1155 56.9918 71.515 56.578 72.0134 56.3223C72.3042 56.1776 72.621 56.0926 72.9452 56.0722C73.2694 56.0518 73.5944 56.0965 73.901 56.2036C74.2077 56.3107 74.4898 56.4782 74.7308 56.696C74.9717 56.9138 75.1667 57.1777 75.3042 57.472Z" fill="#9E616A"/>
<path d="M80.6297 121.392L82.9852 120.916L82.3111 111.4L78.8345 112.102L80.6297 121.392Z" fill="#9E616A"/>
<path d="M79.877 120.727L84.5159 119.79L84.5161 119.79C84.9048 119.711 85.3055 119.711 85.6941 119.79C86.0827 119.87 86.4512 120.027 86.7775 120.253C87.4468 120.712 87.9067 121.418 88.0564 122.215L88.0754 122.314L80.4801 123.848L79.877 120.727Z" fill="#2F2E41"/>
<path d="M72.3712 122.786H74.7724L75.9146 113.317H72.3708L72.3712 122.786Z" fill="#9E616A"/>
<path d="M71.7588 121.985L76.4874 121.984C76.885 121.984 77.2787 122.064 77.6448 122.219C78.0108 122.374 78.3419 122.601 78.6183 122.887C79.1876 123.469 79.5047 124.251 79.5011 125.065V125.166L71.7589 125.166L71.7588 121.985Z" fill="#2F2E41"/>
<path d="M39.8072 102.467C37.1419 102.466 34.9824 100.256 34.9836 97.5308C34.9838 96.8738 35.1127 96.2232 35.3629 95.6157L36.0736 95.9232C35.6531 96.9313 35.6438 98.064 36.0478 99.0788C36.4519 100.094 37.2371 100.91 38.2354 101.353C38.7201 101.562 39.2417 101.673 39.7696 101.678C40.2975 101.683 40.8212 101.583 41.3101 101.384L41.5965 102.117C41.0286 102.349 40.4207 102.468 39.8072 102.467Z" fill="#3F3D56"/>
<path d="M47.2356 102.369H41.2544V100.791L46.0779 99.4097L47.2356 102.369Z" fill="#3F3D56"/>
<path d="M45.1132 100.791H60.9344C60.944 101.67 60.6038 102.518 59.9887 103.147C59.3736 103.776 58.5339 104.134 57.6544 104.144H48.3932C47.5137 104.134 46.674 103.776 46.0589 103.147C45.4438 102.518 45.1036 101.67 45.1132 100.791Z" fill="#3F3D56"/>
<path d="M62.4261 102.786H44.8685C44.2498 102.772 43.661 102.517 43.2283 102.074C42.7955 101.632 42.5532 101.037 42.5532 100.419C42.5532 99.7996 42.7955 99.2052 43.2283 98.7628C43.661 98.3203 44.2498 98.0649 44.8685 98.0513H62.4261C63.0448 98.0649 63.6335 98.3203 64.0663 98.7628C64.499 99.2052 64.7413 99.7996 64.7413 100.419C64.7413 101.037 64.499 101.632 64.0663 102.074C63.6335 102.517 63.0448 102.772 62.4261 102.786Z" fill="#D13425"/>
<path d="M73.7636 66.1688L73.73 67.763L73.5813 74.9241C73.5769 75.3979 73.4791 75.8662 73.2937 76.3022C73.1082 76.7382 72.8386 77.1334 72.5003 77.4651C72.1621 77.7969 71.7617 78.0587 71.3222 78.2356C70.8827 78.4125 70.4127 78.5011 69.9389 78.4962C69.0667 78.4762 68.2327 78.1336 67.5982 77.5346L57.6185 67.9348C57.2233 67.5632 56.9131 67.1107 56.7089 66.6082C56.5047 66.1057 56.4113 65.565 56.4353 65.0231C56.4593 64.4811 56.6 63.9508 56.8478 63.4683C57.0956 62.9857 57.4446 62.5624 57.871 62.2272C58.5891 61.6646 59.4945 61.3968 60.403 61.4782C61.3115 61.5596 62.1549 61.9841 62.7615 62.6654L69.3525 70.2478L69.9856 65.4829L73.7636 66.1688Z" fill="#E6E6E6"/>
<path d="M76.2146 118.89L71.4965 119.328L68.923 100.252C60.4399 101.711 52.4369 102.178 45.5146 100.413C44.3782 100.113 43.4055 99.3775 42.8067 98.3659C42.208 97.3544 42.0312 96.1477 42.3147 95.0069C42.3417 94.8949 42.3728 94.7841 42.4082 94.6744C43.2367 92.1464 44.6963 89.4373 46.4048 86.6567L57.7712 90.8229L58.2001 92.577L70.3237 91.008C70.9094 90.9379 71.5032 90.9845 72.0709 91.1451C72.6385 91.3056 73.1688 91.577 73.6311 91.9434C74.0934 92.3099 74.4786 92.7642 74.7646 93.2803C75.0505 93.7964 75.2315 94.3639 75.2971 94.9502C75.3134 95.0819 75.324 95.214 75.329 95.3467L76.2146 118.89Z" fill="#2F2E41"/>
<path d="M83.3877 114.872L78.6696 115.311L70.1149 97.8121C61.6318 99.2713 53.6288 99.7387 46.7065 97.9735C45.5701 97.6734 44.5974 96.9381 43.9986 95.9265C43.3999 94.9149 43.2231 93.7083 43.5066 92.5675C43.5336 92.4554 43.5647 92.3446 43.6001 92.235C44.4286 89.7069 45.8882 86.9978 47.5967 84.2173L60.7859 85.3272L59.392 90.1376L71.5156 88.5685C72.1013 88.4985 72.6952 88.5451 73.2628 88.7056C73.8304 88.8662 74.3607 89.1375 74.823 89.504C75.2853 89.8705 75.6705 90.3248 75.9565 90.8409C76.2424 91.3569 76.4234 91.9245 76.489 92.5108C76.5053 92.6424 76.5159 92.7746 76.5209 92.9073L83.3877 114.872Z" fill="#2F2E41"/>
<path d="M61.1571 58.7288C64.355 58.7288 66.9475 56.0782 66.9475 52.8085C66.9475 49.5388 64.355 46.8882 61.1571 46.8882C57.9591 46.8882 55.3667 49.5388 55.3667 52.8085C55.3667 56.0782 57.9591 58.7288 61.1571 58.7288Z" fill="#9E616A"/>
<path d="M67.7692 62.5504C67.7116 62.656 67.6971 62.7798 67.7289 62.8958C67.7607 63.0118 67.8362 63.1109 67.9396 63.1724C68.0945 63.1915 71.7331 65.5386 71.8369 65.2699C71.8944 65.253 71.9479 65.2247 71.9943 65.1868C72.0407 65.1489 72.079 65.102 72.107 65.0491L77.9628 54.086C77.995 54.0258 78.0135 53.9594 78.0172 53.8913C78.0208 53.8233 78.0095 53.7552 77.9839 53.692C78.1458 53.4096 73.9473 52.3262 73.804 52.2414C73.706 52.2115 73.6006 52.2166 73.5059 52.2559C73.4112 52.2952 73.3332 52.3663 73.2852 52.4569L67.7692 62.5504Z" fill="#3F3D56"/>
<path d="M77.122 53.8549C77.122 53.8549 73.6079 52.8655 73.6671 52.8233C73.5719 52.8195 73.3799 52.6821 73.3188 52.8236L68.1031 62.4383C67.8788 62.648 71.5655 64.36 71.5966 64.4616C71.8879 64.645 77.037 54.0888 77.1958 54.0346C77.2113 54.0054 77.2148 53.9714 77.2055 53.9397C77.1963 53.908 77.175 53.8812 77.1463 53.865C77.1386 53.8607 77.1304 53.8573 77.122 53.8549Z" fill="#6C63FF"/>
<path d="M64.3977 61.9953C64.4497 61.8632 64.4839 61.7248 64.4994 61.5836C64.5477 61.1719 64.4312 60.7578 64.1753 60.4316C63.9195 60.1055 63.545 59.8937 63.1337 59.8426L60.4416 59.5403C60.238 59.5195 60.0323 59.5391 59.8363 59.5981C59.6404 59.6571 59.458 59.7543 59.2997 59.8841C59.1414 60.0139 59.0104 60.1737 58.9141 60.3544C58.8179 60.535 58.7583 60.7329 58.7388 60.9367C58.6993 61.298 58.784 61.662 58.979 61.9688C57.5989 62.1204 56.2933 62.673 55.2236 63.5582C54.1538 64.4434 53.3666 65.6226 52.9592 66.9501C50.2994 71.8941 48.3849 77.6124 47.4841 84.3858L59.4353 90.062L63.9871 80.3247L64.9031 78.8872C65.0815 78.6975 65.2521 78.508 65.4136 78.3151C66.3564 77.2486 67.1127 76.0308 67.6507 74.7129C68.0258 73.7682 68.2463 72.7693 68.3036 71.7545C68.4859 68.5084 66.9636 65.255 64.3977 61.9953Z" fill="#E4E4E4"/>
<path opacity="0.2" d="M67.6509 74.7129C67.1128 76.0308 66.3565 77.2486 65.4137 78.3151C65.2522 78.508 65.0817 78.6975 64.9032 78.8872L63.9872 80.3247C60.6107 77.7934 57.875 67.8267 57.875 67.8267L61.6847 67.0854L67.6509 74.7129Z" fill="black"/>
<path d="M69.9572 59.2819C69.6236 59.855 69.5268 60.5357 69.6873 61.1792C69.8478 61.8226 70.2531 62.378 70.8168 62.7272C70.9325 62.7963 71.0537 62.8558 71.1792 62.905L70.9096 71.7826L74.7534 69.3625L74.4202 61.3032C74.5838 60.7669 74.5652 60.1915 74.3674 59.6669C74.1696 59.1422 73.8037 58.6978 73.3269 58.403C73.0491 58.235 72.7405 58.1243 72.4192 58.0776C72.098 58.0308 71.7706 58.0489 71.4565 58.1309C71.1424 58.2128 70.8479 58.3569 70.5903 58.5546C70.3328 58.7523 70.1176 58.9996 69.9572 59.2819Z" fill="#9E616A"/>
<path d="M70.5717 68.4315L74.7989 69.0327L74.6171 77.7877C74.6066 78.4122 74.4365 79.0237 74.1231 79.5641C73.8097 80.1044 73.3634 80.5556 72.8265 80.8748C72.1707 81.2607 71.4071 81.423 70.651 81.3371C69.8949 81.2512 69.1872 80.9219 68.6346 80.3987L58.6548 70.7982C57.9526 70.132 57.5324 69.222 57.4805 68.2554C57.4287 67.2888 57.7491 66.3391 58.376 65.6015C58.6862 65.2343 59.0669 64.9331 59.4957 64.7159C59.9245 64.4987 60.3926 64.3698 60.8721 64.337C61.3516 64.3042 61.8329 64.368 62.2873 64.5247C62.7417 64.6815 63.16 64.9279 63.5173 65.2494C63.6159 65.3376 63.7097 65.4311 63.7983 65.5294L70.388 73.1113L70.5717 68.4315Z" fill="#E6E6E6"/>
<path d="M35.9932 97.8542C35.0105 97.8421 34.0727 97.4407 33.3855 96.7381C32.6982 96.0355 32.3177 95.0889 32.3273 94.106V72.9982C32.3165 72.5099 32.4034 72.0244 32.5828 71.5701C32.7622 71.1159 33.0305 70.702 33.372 70.3529C33.7134 70.0037 34.1212 69.7263 34.5713 69.5369C35.0214 69.3476 35.5048 69.25 35.9932 69.25C36.4815 69.25 36.9649 69.3476 37.415 69.5369C37.8652 69.7263 38.2729 70.0037 38.6144 70.3529C38.9559 70.702 39.2242 71.1159 39.4036 71.5701C39.5829 72.0244 39.6698 72.5099 39.659 72.9982V94.106C39.6686 95.0889 39.2881 96.0355 38.6009 96.7381C37.9137 97.4407 36.9759 97.8421 35.9932 97.8542Z" fill="#D13425"/>
<path d="M59.0048 122.601H54.5672V103.279H53.0236V122.601H48.586C47.9134 122.609 47.2713 122.883 46.8009 123.364C46.3306 123.845 46.0705 124.493 46.0778 125.166L61.513 125.166C61.5204 124.493 61.2602 123.845 60.7899 123.364C60.3195 122.883 59.6774 122.609 59.0048 122.601Z" fill="#3F3D56"/>
<path d="M66.1928 46.0998C64.9556 45.3718 63.4496 45.3701 62.0222 45.3883C60.988 45.4015 59.9539 45.4147 58.9197 45.4278C57.6644 45.4438 56.3393 45.4795 55.27 46.1519C54.2006 46.8243 53.5527 48.3739 54.2587 49.4352C52.1589 47.5697 49.0141 47.275 46.3821 48.1953C45.094 48.6457 43.8751 49.3767 43.0002 50.443C42.0499 51.6014 41.5552 53.0929 41.3563 54.5911C41.1574 56.0893 41.2351 57.6097 41.3131 59.1195C41.3622 60.0689 41.4698 61.1396 42.2004 61.7276C42.8744 62.27 43.8623 62.1882 44.6451 61.8296C46.0102 61.2044 46.954 59.8942 47.6594 58.5456C48.365 57.197 48.9028 55.7469 49.7812 54.509C50.6596 53.2711 51.9848 52.2357 53.4806 52.2179C52.4634 53.6934 52.2778 55.8379 53.3408 57.2791C54.1053 58.3155 55.3808 58.8535 56.6434 58.9902C57.9058 59.1269 59.1765 58.9097 60.4283 58.6932C61.2759 58.5466 62.2727 58.2774 62.5532 57.4465C62.8283 56.6319 62.2385 55.8091 61.9861 54.9868C61.4991 53.3998 62.4983 51.5028 64.0624 51.0452L63.935 50.9195C65.2301 51.1041 66.7813 50.9328 67.4709 49.7968C68.2236 48.5566 67.43 46.8278 66.1928 46.0998Z" fill="#2F2E41"/>
<path d="M190.838 6.2736H79.4043C79.361 6.27274 79.3198 6.25495 79.2895 6.22403C79.2592 6.19311 79.2422 6.15154 79.2422 6.10823C79.2422 6.06493 79.2592 6.02336 79.2895 5.99244C79.3198 5.96152 79.361 5.94372 79.4043 5.94287H190.838C190.882 5.94372 190.923 5.96152 190.953 5.99244C190.983 6.02336 191 6.06493 191 6.10823C191 6.15154 190.983 6.19311 190.953 6.22403C190.923 6.25495 190.882 6.27274 190.838 6.2736Z" fill="#3F3D56"/>
<path d="M83.0447 3.95876C84.0272 3.95876 84.8237 3.14438 84.8237 2.13978C84.8237 1.13519 84.0272 0.320801 83.0447 0.320801C82.0621 0.320801 81.2656 1.13519 81.2656 2.13978C81.2656 3.14438 82.0621 3.95876 83.0447 3.95876Z" fill="#3F3D56"/>
<path d="M89.1904 3.95876C90.173 3.95876 90.9695 3.14438 90.9695 2.13978C90.9695 1.13519 90.173 0.320801 89.1904 0.320801C88.2079 0.320801 87.4114 1.13519 87.4114 2.13978C87.4114 3.14438 88.2079 3.95876 89.1904 3.95876Z" fill="#3F3D56"/>
<path d="M95.3362 3.95876C96.3187 3.95876 97.1153 3.14438 97.1153 2.13978C97.1153 1.13519 96.3187 0.320801 95.3362 0.320801C94.3536 0.320801 93.5571 1.13519 93.5571 2.13978C93.5571 3.14438 94.3536 3.95876 95.3362 3.95876Z" fill="#3F3D56"/>
<path d="M187.156 1.43342H182.789C182.703 1.43151 182.621 1.39583 182.56 1.33402C182.5 1.2722 182.466 1.18917 182.466 1.1027C182.466 1.01622 182.5 0.933193 182.56 0.871378C182.621 0.809563 182.703 0.773881 182.789 0.771973H187.156C187.242 0.773881 187.325 0.809563 187.385 0.871378C187.446 0.933193 187.48 1.01622 187.48 1.1027C187.48 1.18917 187.446 1.2722 187.385 1.33402C187.325 1.39583 187.242 1.43151 187.156 1.43342Z" fill="#3F3D56"/>
<path d="M187.156 2.67366H182.789C182.703 2.67175 182.621 2.63606 182.56 2.57425C182.5 2.51244 182.466 2.4294 182.466 2.34293C182.466 2.25646 182.5 2.17343 182.56 2.11161C182.621 2.0498 182.703 2.01412 182.789 2.01221H187.156C187.242 2.01412 187.325 2.0498 187.385 2.11161C187.446 2.17343 187.48 2.25646 187.48 2.34293C187.48 2.4294 187.446 2.51244 187.385 2.57425C187.325 2.63606 187.242 2.67175 187.156 2.67366Z" fill="#3F3D56"/>
<path d="M187.156 3.91389H182.789C182.703 3.91198 182.621 3.8763 182.56 3.81448C182.5 3.75267 182.466 3.66964 182.466 3.58317C182.466 3.4967 182.5 3.41366 182.56 3.35185C182.621 3.29003 182.703 3.25435 182.789 3.25244H187.156C187.242 3.25435 187.325 3.29003 187.385 3.35185C187.446 3.41366 187.48 3.4967 187.48 3.58317C187.48 3.66964 187.446 3.75267 187.385 3.81448C187.325 3.8763 187.242 3.91198 187.156 3.91389Z" fill="#3F3D56"/>
<path d="M169.002 58.479H96.946C96.5883 58.4746 96.247 58.3285 95.9968 58.0728C95.7467 57.817 95.6082 57.4725 95.6116 57.1147V24.7833C95.6082 24.4255 95.7467 24.081 95.9968 23.8252C96.247 23.5695 96.5883 23.4234 96.946 23.4189H169.002C169.36 23.4234 169.701 23.5695 169.951 23.8252C170.201 24.081 170.34 24.4255 170.336 24.7833V57.1147C170.34 57.4725 170.201 57.817 169.951 58.0728C169.701 58.3285 169.36 58.4746 169.002 58.479Z" fill="#D13425"/>
<path d="M111.62 34.688C111.378 34.6933 111.148 34.7932 110.979 34.9664C110.809 35.1395 110.714 35.372 110.714 35.6142C110.714 35.8564 110.809 36.089 110.979 36.2621C111.148 36.4352 111.378 36.5352 111.62 36.5405H154.328C154.57 36.5347 154.8 36.4346 154.969 36.2615C155.137 36.0884 155.232 35.8561 155.232 35.6142C155.232 35.3723 155.137 35.14 154.969 34.967C154.8 34.7939 154.57 34.6938 154.328 34.688L111.62 34.688Z" fill="white"/>
<path d="M111.62 40.0552C111.379 40.0609 111.149 40.1611 110.98 40.3341C110.811 40.5072 110.716 40.7395 110.716 40.9814C110.716 41.2233 110.811 41.4556 110.98 41.6287C111.149 41.8018 111.379 41.9019 111.62 41.9077H154.328C154.57 41.9019 154.8 41.8018 154.969 41.6287C155.138 41.4556 155.232 41.2233 155.232 40.9814C155.232 40.7395 155.138 40.5072 154.969 40.3341C154.8 40.1611 154.57 40.0609 154.328 40.0552H111.62Z" fill="white"/>
<path d="M111.62 45.3569C111.378 45.3623 111.148 45.4622 110.979 45.6353C110.809 45.8084 110.714 46.041 110.714 46.2832C110.714 46.5254 110.809 46.7579 110.979 46.931C111.148 47.1042 111.378 47.2041 111.62 47.2094H129.997C130.24 47.2041 130.47 47.1042 130.639 46.931C130.809 46.7579 130.903 46.5254 130.903 46.2832C130.903 46.041 130.809 45.8084 130.639 45.6353C130.47 45.4622 130.24 45.3623 129.997 45.3569H111.62Z" fill="white"/>
<path d="M169.135 61.9626C172.137 61.9626 174.57 59.4744 174.57 56.4051C174.57 53.3358 172.137 50.8477 169.135 50.8477C166.133 50.8477 163.699 53.3358 163.699 56.4051C163.699 59.4744 166.133 61.9626 169.135 61.9626Z" fill="#3F3D56"/>
<path d="M168.681 58.8628L166.956 56.5948L167.96 55.7969L168.776 56.8706L171.536 53.8926L172.459 54.7863L168.681 58.8628Z" fill="white"/>
<path d="M125.119 125.321H0.229703C0.168274 125.32 0.109799 125.294 0.0668139 125.25C0.0238289 125.206 -0.000244141 125.147 -0.000244141 125.086C-0.000244141 125.025 0.0238289 124.966 0.0668139 124.922C0.109799 124.878 0.168274 124.852 0.229703 124.851H125.119C125.18 124.852 125.239 124.878 125.282 124.922C125.325 124.966 125.349 125.025 125.349 125.086C125.349 125.147 125.325 125.206 125.282 125.25C125.239 125.294 125.18 125.32 125.119 125.321Z" fill="#3F3D56"/>
</g>
<defs>
<clipPath id="clip0_11_3194">
<rect width="191" height="125" fill="white" transform="translate(0 0.320801)"/>
</clipPath>
</defs>
</svg>
